# xmcd
#
# Track frame offsets:
#	150
#	58374
#	85510
#	113706
#	156116
#	183205
#
# Disc length: 2783 seconds
#
# Revision: 0
# Processed by: cddbd v1.5.2PL0 Copyright (c) Steve Scherf et al.
# Submitted via: audiograbber 1.83.01
#
DISCID=420add06
DTITLE=Grateful Dead - 94-10-09 USAir Arena, Landover MD
DYEAR=1900
DGENRE=
TTITLE0=Space
TTITLE1=I Need A Miracle
TTITLE2=Comes A Time
TTITLE3=Throwing Stones
TTITLE4=Turn On Your Lovelight
TTITLE5=Rain
EXTD=
EXTT0=
EXTT1=
EXTT2=
EXTT3=
EXTT4=
EXTT5=
PLAYORDER=
